<svg xmlns="http://www.w3.org/2000/svg" width="343.908" height="346.25" viewBox="0 0 343.908 346.25">
  <g id="Artboard_1" data-name="Artboard 1" transform="translate(80.94 -50.824) rotate(22)">
    <path id="Path_2" data-name="Path 2" d="M37.691,26.725c-2-9,3.334-17.971,13.5-20.238,5.735-1.3,8.769-.467,10.136-.767a1.959,1.959,0,0,0,1.434-1.4l.433-.1,3.734,10.7-.433.1c-5.435-6.768-10.7-8.7-15.1-7.735-5.5,1.234-8.135,6.968-6.368,14.737,2.3,10.269,8.869,14.07,15,12.7a12.2,12.2,0,0,0,9.2-9.336l.633.133c-1.334,6.468-6,11.3-13.17,12.9-9.669,2.167-17.1-3.467-18.971-11.736Z" transform="translate(82.232 2.311)" fill="#ffb256"/>
    <path id="Path_3" data-name="Path 3" d="M47.721,27.2c-.1-6.635,4.868-11.169,11.369-11.3,6.335-.1,11.3,4,11.4,10.369.133,6.635-4.868,11.169-11.369,11.3C52.789,37.672,47.821,33.571,47.721,27.2ZM58.49,3.263h.433L66.192,12.1l-.3.3-7.1-3.7-6.968,3.934-.3-.3,6.935-9.1ZM59.824,36.8c2.434-.033,3.968-3.1,3.868-8.469-.067-3.934-1.167-11.669-5.268-11.6-2.434.033-3.968,3.1-3.9,8.469.067,3.934,1.167,11.669,5.268,11.6Z" transform="translate(106.611 0)" fill="#ffb256"/>
    <path id="Path_4" data-name="Path 4" d="M56.03,26.035,57.6,13.565,55.53,13.3l.133-1.034a26.312,26.312,0,0,0,8.1-6.135l1.034.133L64.2,10.9l6.8.867-1,3.367-6.235-.8L62.3,25.868c-.267,2.067,1.2,2.934,3,3.167a9.147,9.147,0,0,0,3.768-.367l.167.3a11.506,11.506,0,0,1-8.669,2.867c-2.934-.367-5.035-2.2-4.6-5.835Z" transform="translate(124.841 6.769)" fill="#ffb256"/>
    <path id="Path_5" data-name="Path 5" d="M60.463,17.317c1.634-6.3,7.235-10,13.3-8.435,5.1,1.334,7.8,5.035,6.635,9.836l-12.9-3.4c-1.367,5.768.834,10.2,4.835,11.269a7.954,7.954,0,0,0,7.2-1.8l.267.3c-3.234,4.1-8.1,5.635-12.036,4.6-5.368-1.4-8.935-6.268-7.335-12.4Zm11.97-1.4c1.5.4,1.8.067,2.167-1.267.633-2.434.4-4.634-1.534-5.135-1.467-.4-4.068.6-5.4,5.168L72.4,15.916Z" transform="translate(135.379 12.353)" fill="#ffb256"/>
    <path id="Path_6" data-name="Path 6" d="M69.856,23.743a11.236,11.236,0,0,1,15.57-5.068,18.22,18.22,0,0,1,2.434,1.534l1.6-3.067c2.067-4,2.234-5.835,1.2-7.268l.133-.233a36.914,36.914,0,0,0,8.769,1.3l.3.167c-1.034,1.434-3.3,5.8-4.868,8.9L86.06,37.38c-1.067,2.067-1,2.7.767,3.6l-.2.4a46.142,46.142,0,0,0-8.4-2.234l-.3-.167,1.867-2.867a9.267,9.267,0,0,1-7.368-.133c-4.068-2.1-5.035-7.335-2.534-12.17Zm7.735,10.969a6.053,6.053,0,0,0,2.4.7L85.86,24.043c.767-1.467.667-3.934-1.267-4.935-2.534-1.3-5.7,1.434-7.7,5.3-2.6,5.035-1.967,8.935.7,10.3Z" transform="translate(155.16 14.962)" fill="#ffb256"/>
    <path id="Path_7" data-name="Path 7" d="M80.1,13.62a3.293,3.293,0,0,1,4.734-.834,3.21,3.21,0,0,1,.9,4.634c-1.1,1.634-4.8,3.1-7.435,5.5l-.4-.267c1.2-3.367,1.1-7.4,2.167-9.036Z" transform="translate(177.056 20.784)" fill="#ffb256"/>
    <path id="Path_8" data-name="Path 8" d="M81.792,21.076c6.668-7.3,16.771-7.135,23.772-.734,6.968,6.335,8,15.937,1.634,22.939-6.668,7.3-16.837,7.068-23.906.633-6.835-6.235-7.9-15.8-1.5-22.839Zm2.9,22.939c3.434,3.134,9.469,1.467,15.07-4.7,5.535-6.068,9.069-14.837,4.4-19.1-3.368-3.067-9.369-1.3-14.937,4.8-5.535,6.1-9.069,14.837-4.534,19Z" transform="translate(176.198 28.799)" fill="#ffb256"/>
    <path id="Path_9" data-name="Path 9" d="M87.044,35.229l7.5-5.6c2.067-1.567,3-3.2,2.667-4.8l.2-.167a39.038,39.038,0,0,0,7.935,4.568l.2.267-4.468,2.9c1-.1,1.767-.167,2.734-.2,2.834-.067,4.268.667,5.2,1.9a3.142,3.142,0,0,1-.633,4.668,3.223,3.223,0,0,1-4.6-.667c-1.134-1.534-.1-3.434-.8-4.434-.4-.533-1.1-.834-2.434-.8l-9.8,7.3c-1.6,1.2-1.434,2,.067,4.268l-.333.267L83.11,34.829l.333-.267c1.334,1.5,1.967,1.767,3.568.567Z" transform="translate(189.217 50.021)" fill="#ffb256"/>
    <path id="Path_10" data-name="Path 10" d="M95.251,32.55l3.234,6.3a8.424,8.424,0,0,0,1.434,2.2l-5.4,1.267-3.234-6.3a8.423,8.423,0,0,0-1.434-2.2Z" transform="translate(204.949 68.437)" fill="#ffb256"/>
    <path id="Path_11" data-name="Path 11" d="M91.42,45.617a1.123,1.123,0,0,0-.967-.8l-.133-.4,10.036-3.934.133.4c-5.068,4.268-8.569,7.769-7.168,12.6,1.234,4.234,4.034,5.835,6.935,4.968,2.667-.767,3.934-2.934,4.5-7.8l.333-2.767c.733-6.168,3.134-8.335,6.635-9.369a9.58,9.58,0,0,1,12.136,6.668c1,3.4.633,6.168.9,7.168a1.123,1.123,0,0,0,.967.8l.133.4-8.635,3.534-.133-.4c4.4-4.068,7.268-6.935,6-11.3-.733-2.567-3.134-4.6-5.968-3.768-2.234.667-3.668,1.567-4.434,7.9l-.333,2.767c-.7,5.8-2.967,8.169-6.7,9.236-5.835,1.7-11.336-1.767-13.1-7.9-1-3.467-.867-7.068-1.167-8.069Z" transform="translate(206.046 81.409)" fill="#ffb256"/>
    <path id="Path_12" data-name="Path 12" d="M95.334,50.267,104.57,48.8c2.567-.4,4.168-1.434,4.6-3.167h.267a36.627,36.627,0,0,0,4.935,7.869l.067.333a82.168,82.168,0,0,0-8.869,1.134l-9.236,1.467c-1.967.3-2.234.967-2.067,3.134l-.433.067L92,48l.433-.067c.5,2.1.934,2.667,2.9,2.367Zm29.574-1.834A3.629,3.629,0,1,1,120.74,45.4,3.675,3.675,0,0,1,124.908,48.433Z" transform="translate(209.967 98.332)" fill="#ffb256"/>
    <path id="Path_13" data-name="Path 13" d="M95.994,65.29l9.969-.233c3.267-.067,4.468-1.934,4.4-4.268a5.915,5.915,0,0,0-.767-2.667l-13.77.333c-2,.033-2.334.667-2.467,2.5h-.433L92.66,49.687h.433c.233,1.967.567,2.567,2.567,2.534l9.369-.233c2.6-.067,4.3-.867,4.968-2.367h.267a38.937,38.937,0,0,0,3.834,8.3v.333l-4-.267c2.034,2.067,3.9,4.2,4,7.4.067,3.467-2.134,5.735-6.635,5.835l-11.369.267c-2,.033-2.334.667-2.467,2.667h-.433L92.927,62.89h.433c.2,1.8.567,2.4,2.567,2.367Z" transform="translate(211.508 108.281)" fill="#ffb256"/>
    <path id="Path_14" data-name="Path 14" d="M104,57.541c6.368.9,10.569,6.135,9.5,13.7-.6,4.3-2.267,7.4-5,7a2.7,2.7,0,0,1-2.267-3.2c.2-1.467,1.267-2.2,3.1-2.8,2.8-.934,3.434-1.434,3.6-2.6.3-2.067-1.267-4.434-6.068-5.1-6.1-.867-10.4,2.034-10.969,6.068a8.2,8.2,0,0,0,2.6,7.1l-.267.3A11.445,11.445,0,0,1,92.3,66.443a10.092,10.092,0,0,1,11.736-8.9Z" transform="translate(210.406 126.499)" fill="#ffb256"/>
    <path id="Path_15" data-name="Path 15" d="M103.838,64.473c6.235,1.9,9.736,7.6,7.9,13.637-1.534,5.068-5.335,7.6-10.1,6.268l3.868-12.77c-5.735-1.6-10.236.433-11.436,4.4a8.025,8.025,0,0,0,1.5,7.235l-.3.267c-3.968-3.368-5.3-8.3-4.134-12.2,1.6-5.3,6.6-8.669,12.67-6.835Zm.934,12c-.467,1.5-.133,1.8,1.2,2.2,2.4.734,4.634.6,5.2-1.334.433-1.467-.433-4.068-4.968-5.568l-1.434,4.7Z" transform="translate(206.998 141.772)" fill="#ffb256"/>
    <path id="Path_16" data-name="Path 16" d="M94.7,76.431l20.4,10.7a31.253,31.253,0,0,0,2.367-3.367l.4.2c-1.334,3.8-.9,8-.567,11.336l-.2.4L91.634,82.333c-1.767-.934-2.567-.667-4.134,1.934l-.4-.2L93.8,71.33l.4.2c-1.467,3.134-1.2,3.968.567,4.9Z" transform="translate(198.53 158.955)" fill="#ffb256"/>
    <path id="Path_17" data-name="Path 17" d="M98.866,77.5c2.734,1.934,3.367,5.268,2.534,8.569a10.288,10.288,0,0,1,9.669,1.167,9.172,9.172,0,0,1,2.067,12.8c-3.167,4.468-7.535,5.968-11,3.534-2.567-1.834-3.2-5.4-2.4-8.735-5.1,2.5-8.7,2.434-11.369.533-4.434-3.134-5.035-9.3-1.734-13.97,3.2-4.534,8.1-6.8,12.2-3.868Zm-11.5,4.368c-2,2.834-1.667,5.735,1.134,7.7,2.2,1.567,5.335.433,9.136-1.634l1.834-1a8.433,8.433,0,0,1,.967-.467,14,14,0,0,0-4.334-4.5c-3.834-2.7-6.968-2.534-8.735-.067Zm15.57,11.269-1.834,1a.82.82,0,0,1-.333.133,11.78,11.78,0,0,0,3.934,4.7c3.534,2.5,6.235,2.667,7.735.567,1.367-1.934.867-4.968-1.8-6.835-2.334-1.667-5.235-.934-7.769.433Z" transform="translate(192.532 170.357)" fill="#ffb256"/>
    <path id="Path_18" data-name="Path 18" d="M95.82,83.732c2.367,2.334,2.5,5.735,1.134,8.835a10.288,10.288,0,0,1,9.369,2.734,9.2,9.2,0,0,1,0,12.97c-3.834,3.9-8.4,4.668-11.436,1.7-2.267-2.234-2.267-5.835-.967-9-5.435,1.634-8.969,1-11.336-1.3-3.868-3.8-3.468-10,.567-14.07,3.9-3.934,9.1-5.4,12.67-1.867ZM83.784,86.2c-2.434,2.467-2.567,5.368-.133,7.8,1.9,1.9,5.2,1.3,9.3-.133l1.967-.7a7.056,7.056,0,0,1,1.034-.3A13.779,13.779,0,0,0,92.386,87.7c-3.334-3.3-6.468-3.634-8.6-1.467ZM97.321,99.8l-1.967.7a.983.983,0,0,1-.333.1,12.271,12.271,0,0,0,3.134,5.3c3.067,3.034,5.735,3.634,7.535,1.8,1.667-1.7,1.667-4.768-.667-7.035-2.034-2-5-1.767-7.735-.8Z" transform="translate(181.708 183.228)" fill="#ffb256"/>
    <path id="Path_19" data-name="Path 19" d="M89.363,87.448a2.558,2.558,0,0,1-.567,3.768c-1.1.834-2.234.7-3.9-.667-1.367-1.134-2.9-2.4-5-.834-2.634,1.934-2.534,5.468-.6,8.1,2.067,2.8,6.235,4.5,11.77,1.934l.367.333-.533,1.634c-1.367,4.234-.8,6.5.267,7.969a3.917,3.917,0,0,0,5.8.734,8.022,8.022,0,0,0,2.934-6.7l.433-.167a9.18,9.18,0,0,1-2.367,12.036c-3.334,2.467-7.4,2.3-9.436-.433-1.734-2.334-1.434-5.8.067-8.835-4.935,1.534-9.336-.1-11.836-3.468-2.9-3.934-2.667-10,3.467-14.5,3.734-2.767,7.4-3.2,9.1-.9Z" transform="translate(170.194 193.115)" fill="#ffb256"/>
    <path id="Path_20" data-name="Path 20" d="M79.676,97.981l-6.335,3.1a9.186,9.186,0,0,0-2.234,1.367l-1.167-5.4,6.335-3.1a9.186,9.186,0,0,0,2.234-1.367Z" transform="translate(158.476 208.555)" fill="#ffb256"/>
    <path id="Path_21" data-name="Path 21" d="M89.4,105.836c2.134,8.969-3.134,18-13.27,20.4-5.735,1.367-8.769.567-10.136.867a1.976,1.976,0,0,0-1.4,1.4l-.433.1-3.868-10.669.433-.1c5.5,6.7,10.8,8.569,15.2,7.535,5.468-1.3,8.035-7.068,6.2-14.837C79.7,100.3,73.1,96.567,66.962,98a12.175,12.175,0,0,0-9.069,9.436l-.633-.1c1.267-6.5,5.868-11.369,13.036-13.07,9.669-2.3,17.171,3.234,19.1,11.5Z" transform="translate(128.879 211.269)" fill="#ffb256"/>
    <path id="Path_22" data-name="Path 22" d="M72.57,105.223c.2,6.635-4.768,11.236-11.269,11.436-6.335.167-11.336-3.9-11.536-10.269-.2-6.635,4.768-11.236,11.269-11.436C67.368,94.787,72.37,98.854,72.57,105.223Zm-10.5,24.039h-.433l-7.368-8.769.3-.3,7.135,3.6,6.9-4,.3.3-6.868,9.169ZM60.4,95.754c-2.434.067-3.934,3.134-3.8,8.535.1,3.934,1.267,11.669,5.4,11.569,2.434-.067,3.934-3.134,3.8-8.535C65.7,103.389,64.534,95.654,60.4,95.754Z" transform="translate(111.369 214.083)" fill="#ffb256"/>
    <path id="Path_23" data-name="Path 23" d="M59.037,100.488,57.6,112.957l2.067.233-.133,1.034a26.741,26.741,0,0,0-8.035,6.235l-1.034-.133L51,115.691l-6.8-.767.967-3.367,6.235.7,1.334-11.536c.233-2.067-1.234-2.934-3.034-3.134a10.215,10.215,0,0,0-3.734.4l-.2-.267A11.5,11.5,0,0,1,54.4,94.753c2.934.333,5.068,2.167,4.668,5.768Z" transform="translate(98.396 213.484)" fill="#ffb256"/>
    <path id="Path_24" data-name="Path 24" d="M58.344,106.245c-1.567,6.3-7.135,10.1-13.237,8.6-5.135-1.267-7.869-4.968-6.768-9.769l12.97,3.234c1.3-5.8-.934-10.2-4.968-11.2a8.018,8.018,0,0,0-7.168,1.867l-.3-.3c3.167-4.134,8.035-5.735,12-4.734,5.4,1.334,9,6.168,7.468,12.3Zm-11.97,1.534c-1.5-.367-1.834-.067-2.167,1.3-.6,2.434-.367,4.634,1.567,5.135,1.467.367,4.034-.633,5.335-5.235l-4.768-1.2Z" transform="translate(84.152 211.06)" fill="#ffb256"/>
    <path id="Path_25" data-name="Path 25" d="M56.307,107a11.276,11.276,0,0,1-15.537,5.268,16.023,16.023,0,0,1-2.434-1.5l-1.567,3.1c-2,4.034-2.167,5.868-1.134,7.3l-.133.233a36.858,36.858,0,0,0-8.8-1.2l-.3-.167c1-1.434,3.2-5.868,4.768-8.969L39.9,93.6c1.034-2.1.967-2.7-.8-3.6l.2-.4a45,45,0,0,0,8.435,2.134l.3.167L46.2,94.8a9.136,9.136,0,0,1,7.368.067c4.1,2.067,5.135,7.268,2.7,12.17ZM48.439,96.135A6.015,6.015,0,0,0,46,95.468L40.3,106.9c-.734,1.467-.633,3.968,1.334,4.935,2.567,1.267,5.7-1.5,7.635-5.4,2.534-5.068,1.867-8.969-.8-10.3Z" transform="translate(56.848 201.599)" fill="#ffb256"/>
    <path id="Path_26" data-name="Path 26" d="M30.171,102.742a3.323,3.323,0,0,1-4.734.9,3.245,3.245,0,0,1-.967-4.634c1.067-1.634,4.768-3.167,7.368-5.568l.4.267C31.071,97.074,31.238,101.109,30.171,102.742Z" transform="translate(50.977 210.562)" fill="#ffb256"/>
    <path id="Path_27" data-name="Path 27" d="M46.291,110.826c-6.568,7.368-16.671,7.3-23.772,1-7.035-6.268-8.2-15.837-1.867-22.906,6.568-7.368,16.737-7.268,23.906-.867,6.9,6.135,8.069,15.7,1.734,22.805ZM43.123,87.921c-3.467-3.1-9.469-1.367-15,4.868-5.468,6.1-8.9,14.937-4.168,19.138,3.4,3.034,9.369,1.2,14.87-4.968,5.468-6.135,8.9-14.937,4.3-19.038Z" transform="translate(33.756 186.941)" fill="#ffb256"/>
    <path id="Path_28" data-name="Path 28" d="M35.774,87.7l-7.435,5.668C26.272,94.931,25.371,96.6,25.7,98.2l-.2.167a39.528,39.528,0,0,0-8-4.5l-.2-.267,4.468-2.967c-1,.1-1.767.2-2.734.233-2.834.067-4.268-.6-5.235-1.867a3.289,3.289,0,1,1,5.168-4.068c1.167,1.534.133,3.434.867,4.4a2.643,2.643,0,0,0,2.434.767l9.736-7.4c1.6-1.2,1.4-2-.1-4.268l.333-.267,7.468,9.8-.333.267c-1.334-1.467-2-1.767-3.568-.533Z" transform="translate(25.635 174.897)" fill="#ffb256"/>
    <path id="Path_29" data-name="Path 29" d="M15.924,83.216l-3.3-6.235a7.516,7.516,0,0,0-1.434-2.167l5.368-1.334,3.3,6.235a7.516,7.516,0,0,0,1.434,2.167Z" transform="translate(21.346 163.973)" fill="#ffb256"/>
    <path id="Path_30" data-name="Path 30" d="M37.5,79.947a1.123,1.123,0,0,0,.967.8l.133.4-10,4.068-.133-.4c5.035-4.334,8.469-7.869,7.035-12.67-1.267-4.234-4.1-5.768-7-4.9-2.667.8-3.9,3-4.4,7.869l-.3,2.767c-.667,6.168-3.034,8.4-6.5,9.436a9.582,9.582,0,0,1-12.2-6.535c-1.034-3.4-.7-6.168-1-7.168a1.123,1.123,0,0,0-.967-.8l-.133-.4,8.569-3.634.133.4c-4.368,4.134-7.2,7.035-5.868,11.369.767,2.567,3.2,4.568,6,3.7,2.234-.667,3.634-1.6,4.334-7.969l.3-2.767c.633-5.8,2.867-8.2,6.6-9.336,5.8-1.767,11.369,1.634,13.2,7.735,1.034,3.434.967,7.035,1.267,8.035Z" transform="translate(2.206 141.169)" fill="#ffb256"/>
    <path id="Path_31" data-name="Path 31" d="M2.1,70.876a3.68,3.68,0,0,1,2.967-4.2,3.654,3.654,0,0,1,1.234,7.2,3.654,3.654,0,0,1-4.2-2.967Zm29.54-2.167L22.4,70.276c-2.567.433-4.134,1.5-4.568,3.234h-.267a36.012,36.012,0,0,0-5.035-7.8l-.067-.333A77.542,77.542,0,0,0,21.3,64.141l9.236-1.567c1.967-.333,2.2-1,2-3.167l.433-.067,1.967,11.636-.433.067c-.533-2.1-.967-2.634-2.934-2.3Z" transform="translate(0 130.968)" fill="#ffb256"/>
    <path id="Path_32" data-name="Path 32" d="M22.848,60.929l-9.969.333c-3.234.1-4.434,1.967-4.368,4.3a5.979,5.979,0,0,0,.8,2.667l13.77-.5c2-.067,2.3-.7,2.434-2.5h.433l.4,11.236h-.433c-.233-1.967-.6-2.567-2.6-2.5L13.98,74.3c-2.6.1-4.3.934-4.935,2.434H8.778a39.363,39.363,0,0,0-3.934-8.269v-.333l3.968.2c-2.067-2.067-3.968-4.168-4.068-7.368-.133-3.468,2.067-5.768,6.568-5.9l11.336-.4c2-.067,2.3-.7,2.434-2.7h.433l.4,11.236h-.433c-.233-1.8-.6-2.4-2.6-2.334Z" transform="translate(6.287 113.742)" fill="#ffb256"/>
    <path id="Path_33" data-name="Path 33" d="M14.935,66.015c-6.368-.834-10.636-6-9.669-13.57.567-4.3,2.167-7.4,4.935-7.068a2.7,2.7,0,0,1,2.3,3.167c-.2,1.467-1.234,2.2-3.067,2.834-2.8.967-3.434,1.467-3.568,2.634-.267,2.067,1.3,4.4,6.135,5.035,6.1.8,10.369-2.167,10.9-6.2a8.281,8.281,0,0,0-2.667-7.068l.267-.3a11.452,11.452,0,0,1,6.068,11.5,10.069,10.069,0,0,1-11.6,9.036Z" transform="translate(7.199 98.32)" fill="#ffb256"/>
    <path id="Path_34" data-name="Path 34" d="M15.023,59.037c-6.235-1.8-9.836-7.5-8.069-13.537,1.467-5.068,5.268-7.669,10.036-6.368l-3.734,12.8c5.735,1.534,10.236-.533,11.4-4.534a7.9,7.9,0,0,0-1.6-7.235l.3-.267c4,3.334,5.4,8.269,4.268,12.17-1.534,5.335-6.535,8.769-12.6,7Zm-1.067-12c.433-1.5.133-1.8-1.2-2.2-2.4-.7-4.634-.533-5.2,1.367-.433,1.467.5,4.068,5.035,5.535Z" transform="translate(10.411 83.026)" fill="#ffb256"/>
    <path id="Path_35" data-name="Path 35" d="M30.532,49.411,9.994,38.909a31.775,31.775,0,0,0-2.334,3.4l-.4-.2c1.267-3.834.834-8,.467-11.369l.2-.4,25.639,13.1c1.767.9,2.6.633,4.134-1.967l.4.2L31.533,54.512l-.4-.2c1.434-3.167,1.167-3.968-.6-4.9Z" transform="translate(12.173 63.278)" fill="#ffb256"/>
    <path id="Path_36" data-name="Path 36" d="M26.1,51.326c-2.734-1.9-3.434-5.235-2.634-8.535a10.282,10.282,0,0,1-9.7-1.067,9.188,9.188,0,0,1-2.234-12.77c3.1-4.5,7.468-6.068,10.969-3.634,2.6,1.8,3.267,5.368,2.534,8.7,5.068-2.534,8.669-2.534,11.369-.667,4.468,3.1,5.135,9.269,1.9,13.97-3.167,4.568-8.035,6.9-12.17,4.034Zm-4.234-15.6,1.8-1a1.921,1.921,0,0,1,.3-.167,12.132,12.132,0,0,0-4-4.668c-3.568-2.467-6.268-2.6-7.735-.467-1.367,1.967-.8,4.968,1.867,6.835,2.367,1.634,5.235.9,7.769-.533Zm15.7,11.069c1.967-2.867,1.6-5.735-1.2-7.7-2.2-1.534-5.335-.367-9.136,1.767l-1.8,1c-.333.2-.667.333-.967.5a13.87,13.87,0,0,0,4.4,4.468c3.834,2.667,7,2.467,8.735,0Z" transform="translate(18.301 48.894)" fill="#ffb256"/>
    <path id="Path_37" data-name="Path 37" d="M28.186,46.182c-2.4-2.334-2.567-5.735-1.234-8.835a10.243,10.243,0,0,1-9.4-2.634,9.2,9.2,0,0,1-.133-12.97c3.8-3.934,8.335-4.768,11.4-1.834,2.267,2.2,2.334,5.8,1.067,9,5.435-1.7,8.969-1.1,11.336,1.167,3.9,3.768,3.568,9.969-.4,14.07-3.868,4-9.036,5.5-12.67,2ZM26.552,30.111l1.934-.7a.982.982,0,0,1,.333-.1,12.067,12.067,0,0,0-3.2-5.235c-3.134-3-5.768-3.568-7.568-1.7-1.667,1.7-1.6,4.768.734,7.035,2.067,2,5.035,1.734,7.735.734Zm13.67,13.47c2.4-2.5,2.5-5.4.033-7.8-1.934-1.867-5.2-1.234-9.3.267l-1.934.7c-.367.133-.7.233-1.034.333a14.509,14.509,0,0,0,3.6,5.135c3.367,3.267,6.5,3.568,8.6,1.4Z" transform="translate(29.789 34.834)" fill="#ffb256"/>
    <path id="Path_38" data-name="Path 38" d="M32.952,43.272a2.532,2.532,0,0,1,.533-3.768c1.1-.834,2.234-.7,3.9.633,1.4,1.134,2.934,2.367,5,.8,2.6-1.967,2.467-5.5.5-8.1-2.1-2.767-6.268-4.434-11.769-1.8l-.367-.333.5-1.634c1.3-4.234.734-6.535-.367-7.969a3.942,3.942,0,0,0-5.835-.667,7.972,7.972,0,0,0-2.867,6.7l-.433.167a9.232,9.232,0,0,1,2.234-12.07c3.334-2.5,7.4-2.367,9.436.333,1.734,2.334,1.467,5.768.033,8.835,4.935-1.6,9.336,0,11.836,3.334,2.934,3.9,2.767,9.936-3.3,14.537-3.7,2.8-7.368,3.267-9.069,1Z" transform="translate(42.927 23.84)" fill="#ffb256"/>
    <path id="Path_39" data-name="Path 39" d="M40.412,13.17l1.367,2.7-10.3,5.2-1.367-2.7Z" transform="translate(65.508 23.201)" fill="#ffb256"/>
  </g>
</svg>
